<svg width="1171" height="873" viewBox="0 0 1171 873" fill="none" xmlns="http://www.w3.org/2000/svg">
<path d="M541.104 722.83C505.933 743.162 469.065 756.385 427.087 756.212C380.298 756.015 333.915 724.62 304.603 690.164C293.712 677.367 284.188 662.576 281.98 645.921C276.894 607.443 312.105 596.498 343.809 596.986C361.679 597.253 378.962 602.205 396.052 607.115C424.425 615.276 456.066 616.004 482.685 629.677C491.62 634.282 498.837 640.469 508.731 643.189C524.123 647.425 540.84 647.671 556.499 651.22C569.875 654.277 585.35 660.518 587.872 673.998C590.443 687.826 577.653 699.318 565.999 707.177C557.754 712.766 549.485 718.002 541.104 722.83Z" fill="url(#paint0_linear)"/>
<path d="M292.8 267.685C333.798 157.432 457.155 86.9824 573.386 96.193C629.435 100.643 681.635 125.71 730.793 152.964C774.122 176.983 817.026 203.828 851.439 239.921C874.934 264.556 895.142 296.034 911.325 326.078C935.538 371.069 939.394 435.735 876.184 446.409C861.354 448.915 847.466 446.763 832.717 445.517C820.784 444.5 810.529 449.375 798.64 450.363C768.718 452.856 738.371 449.047 709.089 443.053C649.407 430.811 592.113 408.354 531.679 399.62C482.158 392.486 431.73 394.892 383.114 406.707C362.604 411.695 341.399 418.409 320.815 413.734C270.076 402.189 275.467 336.23 283.946 297.792C286.181 287.559 289.14 277.498 292.8 267.685Z" fill="url(#paint1_linear)"/>
<path d="M792.509 161.678C804.569 168.201 849.33 183.109 843.062 154.285C841.491 147.106 836.558 140.971 830.873 136.824C824.365 132.06 817.882 130.313 812.235 124.29C805.354 117.032 797.931 110.445 790.063 104.613C773.912 92.4207 755.963 81.8962 736.832 79.9338C723.415 78.5628 702.791 84.785 700.803 102.037C697.901 127.153 735.452 122.428 748.644 128.092C761.158 133.445 770.486 145.626 781.515 154.421C784.998 157.193 788.679 159.622 792.509 161.678Z" fill="url(#paint2_linear)"/>
<path d="M588.693 174.827C614.29 182.519 635.899 198.123 660.184 209.005C700.615 227.119 748.483 221.127 791.926 229.97C836.226 238.999 873.347 260.8 897.191 299.486C927.983 349.417 945.44 413.489 944.213 472.875C942.855 538.245 914.357 588.427 864.751 629.388C815.174 670.324 755.988 698.257 694.502 716.088C688.57 717.814 682.619 719.418 676.619 720.928C541.845 754.768 350.563 751.26 269.103 617.527C268.357 616.305 267.629 615.08 266.895 613.835C258.204 598.842 251.339 582.862 246.447 566.236C228.958 507.333 223.276 438.982 230.489 377.98C235.331 336.915 260.321 304.897 286.665 274.419C323.678 231.601 373.853 202.876 427.337 185.727C466.943 173.03 512.012 160.896 553.895 166.977C565.674 168.721 577.306 171.344 588.693 174.827Z" fill="url(#paint3_linear)"/>
<path d="M902.258 591.85C878.601 624.875 850.466 652.125 812.152 669.277C769.445 688.391 714.243 678.915 673.331 659.612C658.132 652.444 643.356 642.897 634.477 628.634C613.977 595.677 641.541 571.187 670.626 558.558C687.016 551.432 704.803 548.817 722.397 546.244C751.612 541.978 780.737 529.595 810.625 531.075C820.665 531.586 829.79 534.246 839.926 532.644C855.695 530.157 871.026 523.487 886.756 520.263C900.202 517.533 916.873 516.837 924.73 528.078C932.774 539.615 925.86 555.359 918.484 567.324C913.278 575.815 907.903 583.995 902.258 591.85Z" fill="url(#paint4_linear)"/>
<path d="M506.432 412.302C506.091 412.302 505.748 412.194 505.455 411.968C505.188 411.758 498.859 406.759 494.026 396.562C489.594 387.211 485.658 371.534 492.066 349.921C496.412 335.259 500.768 324.836 504.609 315.634C511.583 298.94 516.623 286.878 517.03 261.306C517.043 260.431 517.689 259.68 518.643 259.741C519.525 259.757 520.225 260.476 520.212 261.357C519.795 287.54 514.389 300.48 507.545 316.863C503.734 325.988 499.416 336.328 495.117 350.828C483.431 390.23 507.17 409.27 507.412 409.454C508.102 409.995 508.226 410.994 507.689 411.688C507.374 412.092 506.906 412.302 506.432 412.302Z" fill="#000C3E"/>
<path d="M636.799 161.035C636.561 178.369 622.316 192.232 604.979 191.994C587.645 191.755 573.785 177.51 574.021 160.173C574.259 142.839 588.507 128.979 605.841 129.215C623.175 129.454 637.038 143.701 636.799 161.035Z" fill="#000C3E"/>
<path d="M503.394 401.089C503.394 401.089 513.051 419.858 550.808 425.645C588.563 431.43 617.749 417.125 647.024 426.963C676.299 436.804 717.907 422.092 725.928 409.699C733.952 397.306 729.001 262.283 705.577 240.179C682.153 218.076 561.792 202.021 536.433 229.138C511.075 256.26 486.55 386.268 503.394 401.089Z" fill="#000C3E"/>
<path d="M717.938 289.38C717.155 346.508 670.209 392.185 613.078 391.402C555.95 390.62 510.273 343.67 511.055 286.542C511.841 229.414 558.788 183.737 615.916 184.52C673.044 185.306 718.721 232.252 717.938 289.38Z" fill="#000C3E"/>
<path d="M529.966 286.087C529.966 286.087 537.198 411.52 622.201 414.925C707.201 418.329 702.915 241.46 671.801 225.363C640.687 209.27 512.587 215.471 529.966 286.087Z" fill="#FFCEB0"/>
<path d="M617.744 310.891C617.744 310.891 634.871 349.145 630.761 351.805C626.65 354.462 614.432 354.296 611.075 351.535C607.719 348.773 611.012 306.726 617.744 310.891Z" fill="#F5A473"/>
<path d="M592.633 324.426C592.522 328.83 588.863 332.31 584.46 332.199C580.056 332.091 576.575 328.432 576.687 324.028C576.795 319.625 580.454 316.144 584.86 316.252C589.264 316.364 592.745 320.023 592.633 324.426Z" fill="#41294A"/>
<path d="M661.01 319.045C660.899 323.449 657.24 326.929 652.836 326.818C648.433 326.71 644.952 323.051 645.064 318.647C645.172 314.244 648.831 310.763 653.237 310.871C657.641 310.982 661.122 314.641 661.01 319.045Z" fill="#41294A"/>
<path d="M595.202 217.554C595.202 217.554 565.118 232.995 559.986 260.758C554.851 288.522 559.525 359.192 527.205 356.713C527.205 356.713 461.451 218.196 595.202 217.554Z" fill="#41294A"/>
<path d="M611.256 217.774C608.542 219.816 642.679 218.922 662.759 242.12C682.842 265.318 688.881 324.343 691.926 325.367C694.971 326.395 705.257 251.735 683.329 229.899C661.4 208.066 626.7 206.151 611.256 217.774Z" fill="#41294A"/>
<path d="M684.725 330.584C684.725 330.584 692.103 298.964 706.542 309.813C720.98 320.663 708.938 353.807 694.998 357.119C681.062 360.432 677.372 346.966 684.725 330.584Z" fill="#FFCEB0"/>
<path d="M550.746 328.746C550.746 328.746 544.236 296.935 529.505 307.384C514.777 317.833 525.906 351.299 539.747 354.993C553.591 358.683 557.647 345.326 550.746 328.746Z" fill="#FFCEB0"/>
<path d="M649.183 290.911C649.183 290.911 664.195 282.991 673.444 294.369C681.58 304.372 663.011 296.265 656.177 297.56C649.339 298.859 640.31 298.292 649.183 290.911Z" fill="#41294A"/>
<path d="M589.527 293.793C589.527 293.793 574.13 286.65 565.473 298.483C557.859 308.89 575.989 299.845 582.883 300.793C589.775 301.738 598.767 300.71 589.527 293.793Z" fill="#41294A"/>
<path d="M643.732 375.18C643.732 375.18 633.939 360.382 623.344 361.314C612.745 362.249 604.622 375.889 603.197 376.462C603.197 376.462 619.736 384.229 643.732 375.18Z" fill="#41294A"/>
<path d="M584.172 306.667C570.914 306.667 559.979 317.46 559.794 330.721C559.708 337.231 562.158 343.391 566.702 348.062C571.245 352.729 577.332 355.348 583.845 355.437L584.185 355.44C597.443 355.44 608.379 344.651 608.56 331.389C608.745 317.947 597.959 306.858 584.513 306.671L584.172 306.667ZM584.185 358.622L583.8 358.619C576.438 358.52 569.556 355.555 564.42 350.279C559.285 345.001 556.514 338.039 556.612 330.677C556.819 315.684 569.183 303.486 584.172 303.486L584.557 303.489C599.757 303.699 611.949 316.235 611.742 331.431C611.539 346.423 599.174 358.622 584.185 358.622Z" fill="#FFFCF6"/>
<path d="M653.038 301.156C639.777 301.156 628.841 311.948 628.66 325.209C628.475 338.649 639.264 349.741 652.707 349.925L653.048 349.928C666.309 349.928 677.245 339.139 677.426 325.878C677.515 319.365 675.062 313.205 670.522 308.534C665.978 303.87 659.891 301.248 653.378 301.159L653.038 301.156ZM653.048 353.11L652.666 353.107C637.463 352.897 625.271 340.361 625.478 325.165C625.685 310.173 638.046 297.974 653.038 297.974L653.423 297.977C660.786 298.076 667.668 301.041 672.8 306.316C677.938 311.595 680.71 318.556 680.608 325.919C680.401 340.911 668.037 353.11 653.048 353.11Z" fill="#FFFCF6"/>
<path d="M558.887 326.727C558.705 326.727 558.517 326.695 558.339 326.631L548.135 322.883C547.311 322.578 546.888 321.665 547.191 320.838C547.493 320.017 548.412 319.6 549.233 319.896L559.434 323.641C560.261 323.946 560.681 324.859 560.379 325.687C560.143 326.329 559.536 326.727 558.887 326.727Z" fill="#FFFCF6"/>
<path d="M677.873 319.496C677.196 319.496 676.566 319.061 676.356 318.38C676.092 317.543 676.559 316.649 677.399 316.385L691.345 312.032C692.178 311.765 693.076 312.239 693.337 313.076C693.601 313.916 693.133 314.807 692.293 315.071L678.347 319.426C678.192 319.474 678.029 319.496 677.873 319.496Z" fill="#FFFCF6"/>
<path d="M610.759 246.942C610.759 246.942 610.788 278.673 629.69 284.404C648.59 290.137 697.21 287.608 696.717 279.854C692.265 209.846 659.357 213.368 631.873 204.408C583.673 188.7 544.251 267.4 550.153 286.001C556.055 304.598 596.737 287.232 605.445 284.617C614.151 281.998 609.327 260.436 610.759 246.942Z" fill="#000C3E"/>
<g opacity="0.210007">
<g opacity="0.210007">
<path opacity="0.210007" d="M562.015 354.112C562.015 354.112 604.895 329.371 623.715 332.829C642.535 336.291 675.565 336.832 677.06 343.583C678.559 350.332 635.185 347.29 621.844 348.588C608.503 349.886 557.287 365.245 562.015 354.112Z" fill="#DB5C5D"/>
</g>
</g>
<path d="M586.013 337.556C585.386 337.556 584.791 337.183 584.539 336.563C584.209 335.752 584.6 334.823 585.414 334.492C589.726 332.735 590.524 331.351 590.531 331.339C590.814 330.505 591.686 330.117 592.526 330.413C593.356 330.696 593.773 331.663 593.49 332.497C593.289 333.082 592.204 335.163 586.611 337.438C586.413 337.518 586.213 337.556 586.013 337.556Z" fill="#DB5C5D"/>
<path d="M651.524 334.188C650.242 334.188 648.078 333.8 644.68 332.142C643.888 331.76 643.56 330.809 643.945 330.016C644.327 329.227 645.284 328.903 646.07 329.285C650.261 331.324 651.82 330.984 651.839 330.984C652.65 330.643 653.516 331.041 653.859 331.849C654.203 332.657 653.764 333.612 652.952 333.959C652.742 334.048 652.291 334.188 651.524 334.188Z" fill="#DB5C5D"/>
<path d="M610.128 331.541C609.323 331.541 608.629 330.933 608.546 330.112C608.457 329.237 609.094 328.454 609.969 328.368L627.042 326.625C627.898 326.517 628.696 327.169 628.785 328.044C628.875 328.919 628.238 329.702 627.363 329.788L610.29 331.531C610.236 331.537 610.182 331.541 610.128 331.541Z" fill="#FFFCF6"/>
<path d="M586.487 191.565C586.255 191.565 586.016 191.515 585.794 191.403C576.767 187.016 571.307 180.757 569.557 172.8C565.676 155.131 581.46 135.583 582.135 134.759C582.695 134.078 583.694 133.979 584.371 134.536C585.052 135.093 585.154 136.092 584.597 136.773C584.441 136.964 569.112 155.968 572.666 172.125C574.196 179.08 579.08 184.604 587.184 188.546C587.973 188.928 588.304 189.882 587.919 190.671C587.645 191.235 587.079 191.565 586.487 191.565Z" fill="#000C3E"/>
<path d="M622.817 196.294C622.375 196.294 621.936 196.109 621.621 195.753C621.041 195.091 621.105 194.089 621.767 193.507C621.951 193.344 640.196 177.121 639.343 160.598C638.977 153.487 635.067 147.235 627.72 142.014C627.004 141.508 626.835 140.515 627.345 139.796C627.854 139.083 628.846 138.915 629.562 139.424C637.742 145.233 642.105 152.306 642.521 160.445C643.444 178.508 624.665 195.196 623.864 195.899C623.561 196.163 623.189 196.294 622.817 196.294Z" fill="#000C3E"/>
<path d="M717.447 405.181C716.986 405.181 716.528 404.983 716.213 404.592C715.659 403.914 715.761 402.912 716.442 402.355C716.652 402.184 737.578 384.706 731.517 357.057C729.181 346.398 725.087 334.67 720.75 322.255C713.231 300.724 705.455 278.459 704.822 256.874C704.797 255.992 705.49 255.264 706.368 255.235C707.192 255.264 707.978 255.9 708.004 256.778C708.624 277.873 716.315 299.904 723.753 321.205C728.122 333.716 732.249 345.53 734.625 356.373C741.113 385.979 718.679 404.64 718.449 404.824C718.154 405.063 717.8 405.181 717.447 405.181Z" fill="#000C3E"/>
<path d="M723.098 291.551C723.047 291.551 722.993 291.548 722.939 291.545C722.067 291.459 721.428 290.679 721.513 289.804C724.262 261.967 718.405 239.374 704.109 222.641C681.09 195.708 643.691 193.236 643.319 193.213C642.441 193.162 641.77 192.412 641.824 191.53C641.871 190.655 642.626 189.962 643.501 190.038C643.892 190.06 682.639 192.618 706.527 220.573C721.408 237.99 727.517 261.388 724.679 290.116C724.6 290.94 723.906 291.551 723.098 291.551Z" fill="#000C3E"/>
<path d="M609.154 378.321C609.154 378.321 625.008 367.197 639.167 376.733C639.167 376.733 622.635 382.928 609.154 378.321Z" fill="#DB5C5D"/>
<path d="M619.644 389.741C618.079 389.741 616.733 389.725 615.903 389.712C615.025 389.699 614.325 388.977 614.337 388.096C614.35 387.217 614.951 386.505 615.954 386.53C621.961 386.61 629.139 386.463 630.256 386.04C631.073 385.728 631.996 386.136 632.311 386.953C632.626 387.774 632.225 388.687 631.407 389.006C629.816 389.623 623.911 389.741 619.644 389.741Z" fill="#DB5C5D"/>
<path d="M542.48 346.203C542.337 346.203 542.194 346.184 542.051 346.143C541.204 345.907 540.711 345.032 540.946 344.183C545.299 328.583 533.743 318.538 533.625 318.436C532.957 317.87 532.874 316.865 533.444 316.193C534.01 315.525 535.016 315.442 535.687 316.015C536.228 316.473 548.907 327.498 544.01 345.042C543.813 345.742 543.177 346.203 542.48 346.203Z" fill="#DB5C5D"/>
<path d="M690.92 350.003C690.885 350.003 690.853 350.003 690.815 350C689.94 349.943 689.275 349.185 689.329 348.31C690.519 329.847 699.367 319.977 699.746 319.567C700.338 318.918 701.343 318.873 701.989 319.465C702.638 320.057 702.683 321.062 702.094 321.711C702.008 321.807 693.618 331.234 692.508 348.514C692.45 349.357 691.75 350.003 690.92 350.003Z" fill="#DB5C5D"/>
<path d="M658.972 401.941C658.972 401.941 664.031 458.534 657.318 467.485C650.604 476.438 608.084 469.721 596.893 467.485C585.703 465.248 585.681 371.648 587.94 377.97C606.623 430.185 657.684 383.977 658.972 401.941Z" fill="#FFCEB0"/>
<path d="M591.986 407.539C591.986 407.539 622.152 422.038 656.445 404.487C656.445 404.487 659.111 425.57 656.445 430.431C653.782 435.293 599.46 438.767 588.766 414.806C588.766 414.806 588.9 406.498 591.986 407.539Z" fill="#F5A473"/>
<path d="M427.249 850.876H817.622C817.622 850.876 837.562 511.474 788.662 474.566C739.759 437.655 524.486 456.093 473.804 487.621C423.122 519.149 427.249 850.876 427.249 850.876Z" fill="#FB4C47"/>
<path d="M622.153 460.778C622.153 460.778 607.106 591.241 613.674 609.399C620.237 627.558 611.828 708.065 609.155 718.53C606.48 728.994 525.374 733.439 504.445 725.068C483.515 716.697 509.777 491.045 521.492 449.298C533.211 407.547 620.864 432.145 622.153 460.778Z" fill="#05BA6E"/>
<path d="M383.969 300.932C383.969 300.932 416.598 363.425 439.465 364.004C462.335 364.583 539.454 270.668 567.889 269.7C596.328 268.736 620.747 271.495 620.859 264.718C620.97 257.937 581.307 250.537 581.307 250.537C581.307 250.537 638.667 254.189 626.802 247.915C614.941 241.641 586.515 235.999 586.515 235.999C586.515 235.999 627.741 237.663 628.04 233.254C628.339 228.844 585.118 222.35 585.118 222.35C585.118 222.35 637.712 220.67 628.094 213.435C618.472 206.199 600.365 209.34 551.389 216.82C502.409 224.3 391.602 289.688 383.969 300.932Z" fill="#FFCEB0"/>
<path d="M441.214 297.938C441.214 297.938 493.41 329.03 470.683 364.265C446.483 401.784 447.838 390.638 443.654 405.818C439.467 420.998 508.441 450.563 511.578 463.557C514.715 476.548 482.201 636.332 451.745 629.774C425.235 624.069 277.915 540.466 256.743 456.92C240.332 392.15 374.102 233.722 441.214 297.938Z" fill="#FB4C47"/>
<path d="M577.845 662.398C577.845 662.398 520.011 789.801 541.274 806.862C562.538 823.919 579.672 812.805 598.476 823.878C617.283 834.95 635.323 829.414 650.43 819.78C665.537 810.142 626.22 683.391 609.958 671.323C593.697 659.252 580.776 655.777 577.845 662.398Z" fill="white"/>
<path d="M770.001 465.5C770.001 465.5 801.099 469.296 825.51 514C843.824 547.541 879.304 743.529 825.51 771.454C771.716 799.377 721.261 784.771 701.736 765.953C682.209 747.135 716.95 650.154 740.108 642.915C763.268 635.679 770.001 465.5 770.001 465.5Z" fill="#FB4C47"/>
<path d="M780.071 462.496C780.071 462.496 781.525 453.434 736.742 434.055C701.005 418.588 670.393 444.691 615.88 447.501C561.368 450.313 566.287 428.706 527.727 438.748C468.222 454.239 515.598 493.244 534.772 497.622C553.945 502 618.181 609.985 780.071 462.496Z" fill="#05BA6E"/>
<path d="M623.78 353.6C623.78 353.6 623.614 357.291 625.733 357.625C627.852 357.959 631.769 356.776 630.76 351.803C630.76 351.803 625.447 353.511 623.78 353.6Z" fill="white"/>
<path d="M844.514 659.318C844.365 659.318 844.212 659.309 844.059 659.287C842.589 659.077 841.501 657.893 841.345 656.483C838.695 653.419 820.899 647.002 809.028 642.719C785.509 634.234 774.961 630.037 772.693 625.446C770.768 621.554 771.63 615.942 772.721 608.837C774.449 597.593 776.603 583.593 769.463 570.109C757.134 546.822 758.308 512.281 758.365 510.824C758.435 509.067 759.953 507.661 761.665 507.766C763.421 507.833 764.789 509.312 764.726 511.065C764.71 511.409 763.564 545.371 775.089 567.131C783.212 582.479 780.784 598.27 779.012 609.801C778.162 615.321 777.364 620.536 778.398 622.627C780.326 625.601 798.898 632.302 811.185 636.734C838.879 646.725 848.494 650.744 847.658 656.588C847.432 658.176 846.07 659.318 844.514 659.318Z" fill="#B31B1F"/>
<path d="M761.5 633.159C761.223 633.159 760.943 633.124 760.66 633.047C750.148 630.18 733.816 627.196 733.654 627.164C731.923 626.852 730.777 625.195 731.092 623.467C731.407 621.736 733.059 620.572 734.793 620.906C735.47 621.027 751.554 623.967 762.334 626.906C764.03 627.371 765.029 629.118 764.567 630.814C764.182 632.23 762.9 633.159 761.5 633.159Z" fill="#B31B1F"/>
<path d="M818.653 790.54C818.602 790.54 818.555 790.54 818.507 790.536C759.613 787.867 700.935 762.779 697.763 738.916C696.767 731.417 696.048 727.665 695.603 725.81C694.413 725.219 693.691 723.952 693.904 722.568C694.308 719.947 696.083 719.017 697.493 719.017H697.528C700.732 719.052 701.795 720.93 704.073 738.079C706.535 756.603 759.957 781.513 818.793 784.179C820.55 784.259 821.908 785.745 821.829 787.501C821.752 789.21 820.343 790.54 818.653 790.54Z" fill="#B31B1F"/>
<path d="M713.077 734.226C712.845 734.226 712.609 734.2 712.371 734.149C710.659 733.761 709.583 732.056 709.972 730.341C710.108 729.727 724.025 668.383 737.032 624.256C737.529 622.569 739.31 621.602 740.984 622.105C742.67 622.601 743.634 624.37 743.135 626.056C730.185 669.987 716.316 731.133 716.179 731.747C715.842 733.224 714.531 734.226 713.077 734.226Z" fill="#B31B1F"/>
<path d="M437 600.994C436.844 600.994 436.682 600.982 436.523 600.959C434.786 600.699 433.59 599.076 433.85 597.342C434.178 595.146 442.034 543.3 452.814 519.039C463.294 495.463 468.659 471.558 468.713 471.32C469.088 469.605 470.784 468.532 472.508 468.902C474.223 469.283 475.305 470.986 474.923 472.701C474.704 473.7 469.365 497.467 458.63 521.626C448.2 545.098 440.22 597.755 440.141 598.284C439.905 599.865 438.547 600.994 437 600.994Z" fill="#B31B1F"/>
<path d="M388.497 419.977C380.027 419.977 370.536 419.462 360.088 418.132C358.344 417.909 357.109 416.318 357.332 414.575C357.552 412.831 359.184 411.619 360.889 411.819C392.707 415.873 415.31 412.141 426.961 409.598C421.158 407.743 413.028 405.936 404.915 406.378C386.658 407.237 359.944 390.928 358.815 390.228C357.319 389.305 356.858 387.345 357.781 385.85C358.703 384.354 360.667 383.887 362.159 384.816C362.42 384.975 388.351 400.817 404.587 400.021C420.054 399.207 438.371 406.095 440.035 409.051C440.63 410.104 440.582 411.472 439.904 412.475C439.274 413.4 437.97 413.957 436.825 413.887C436.322 413.945 434.833 414.301 433.385 414.645C426.427 416.312 411.091 419.974 388.497 419.977Z" fill="#B31B1F"/>
<path d="M466.708 351.594C465.525 351.594 464.389 350.932 463.841 349.799C463.762 349.637 455.817 333.499 442.288 327.104C426.93 319.84 409.561 294.523 408.829 293.451C407.84 291.997 408.215 290.015 409.666 289.028C411.123 288.042 413.099 288.421 414.085 289.865C414.257 290.113 431.213 314.823 445.012 321.348C460.602 328.727 469.212 346.287 469.572 347.028C470.335 348.613 469.67 350.509 468.089 351.273C467.644 351.492 467.173 351.594 466.708 351.594Z" fill="#B31B1F"/>
<path d="M614.497 536.501C614.379 536.501 614.258 536.488 614.141 536.46C613.285 536.265 612.747 535.41 612.944 534.557C613.021 534.22 620.609 501.047 622.83 484.196C626.289 457.925 614.522 448.761 614.405 448.672C613.702 448.144 613.555 447.151 614.077 446.448C614.599 445.742 615.585 445.592 616.292 446.111C616.842 446.515 629.709 456.318 625.983 484.61C623.746 501.613 616.123 534.932 616.047 535.263C615.878 536.005 615.222 536.501 614.497 536.501Z" fill="#08824F"/>
<path d="M520.663 488.657L517.503 488.291C517.503 488.291 519.972 466.811 521.261 456.251C522.562 445.599 525.601 438.325 525.731 438.02C526.072 437.205 527.007 436.836 527.815 437.17C528.623 437.514 529.002 438.449 528.662 439.257C528.63 439.327 525.661 446.454 524.42 456.639C523.132 467.19 520.663 488.654 520.663 488.657Z" fill="#08824F"/>
<path d="M611.008 841.386C592.863 841.386 582.885 840.787 569.076 839.96C551.312 838.894 526.988 837.437 470.143 836.553C468.387 836.527 466.984 835.083 467.012 833.323C467.041 831.567 468.587 830.103 470.242 830.189C527.227 831.074 551.634 832.54 569.455 833.609C583.155 834.427 593.05 835.022 611.008 835.022C633.487 835.022 653.653 832.559 673.157 830.18C690.278 828.086 706.447 826.113 723.778 825.728C760.747 824.914 788.374 825.725 788.647 825.728C790.404 825.786 791.785 827.252 791.73 829.005C791.676 830.762 790.194 832.063 788.456 832.092C788.183 832.082 760.712 831.268 723.921 832.092C706.905 832.467 690.885 834.424 673.927 836.495C654.235 838.901 633.875 841.386 611.008 841.386Z" fill="#B31B1F"/>
<path d="M755.143 798.932C753.562 798.932 751.977 798.223 750.597 796.136C746.298 789.642 745 789.107 736.689 790.386C729.171 791.56 726.202 786.231 724.236 782.709C723.58 781.531 722.957 780.421 722.413 779.991C720.949 778.837 717.293 780.224 715.747 781.076L714.204 778.296C714.878 777.92 720.873 774.723 724.385 777.494C725.426 778.318 726.161 779.635 727.014 781.156C728.913 784.551 730.879 788.048 736.202 787.243C745.716 785.773 748.258 786.845 753.25 794.379C754.574 796.384 755.719 796.11 759.248 794.052C761.927 792.48 765.99 790.109 769.019 794.341L766.435 796.193C765.255 794.554 764.186 794.85 760.851 796.797C759.257 797.73 757.202 798.932 755.143 798.932Z" fill="white"/>
<path d="M718.124 649.085C718.124 649.085 642.125 621.604 609.153 635.661C576.181 649.715 549.009 685.948 554.042 688.344C559.076 690.743 586.012 669.852 586.012 669.852C586.012 669.852 558.544 697.609 563.638 700.387C568.732 703.164 595.201 688.344 595.201 688.344C595.201 688.344 576.725 708.096 584.66 709.607C592.595 711.119 609.608 694.844 627.349 694.233C645.094 693.619 667.455 707.641 689.638 711.59C711.818 715.535 718.124 649.085 718.124 649.085Z" fill="#FFCEB0"/>
<path d="M832.818 634.84C832.621 634.84 832.423 634.821 832.223 634.783C832 634.744 809.62 630.513 782.865 625.072C781.143 624.722 780.03 623.042 780.38 621.321C780.727 619.599 782.403 618.486 784.131 618.839C810.842 624.267 833.184 628.489 833.407 628.534C835.134 628.858 836.267 630.522 835.939 632.25C835.653 633.777 834.317 634.84 832.818 634.84Z" fill="#B31B1F"/>
<path fill-rule="evenodd" clip-rule="evenodd" d="M620.41 134.769C619.579 134.769 618.676 134.866 617.697 135.059C615.312 135.538 613.767 136.697 612.839 138.708C608.702 147.662 617.424 168.986 623.656 181.585C627.507 167.609 632.122 144.248 625.601 136.886C624.345 135.471 622.636 134.769 620.41 134.769ZM623.839 192.049C623.939 192.068 624.04 192.082 624.142 192.09C624.474 192.218 624.828 192.284 625.186 192.284C625.517 192.284 625.849 192.229 626.172 192.111C630.422 190.562 667.844 176.527 672.505 160.355C673.626 156.467 672.837 152.632 670.225 149.273C665.782 143.553 660.982 142.873 657.735 143.305C648.524 144.534 639.457 156.434 632.808 167.74C635.16 154.863 636.066 139.992 629.922 133.056C627.755 130.608 623.673 127.983 616.568 129.398C612.398 130.23 609.294 132.615 607.598 136.29C601.32 149.887 615.762 179.169 620.575 188.244C614.506 189.415 608.402 189.679 602.563 189.283C589.984 188.428 578.834 184.516 572.177 180.237L569.798 183.938C577.164 188.673 589.052 192.775 602.265 193.673C609.194 194.143 616.543 193.737 623.839 192.049ZM659.327 148.971C659.054 148.971 658.777 148.987 658.5 149.029C648.744 150.327 636.957 171.018 630.725 184.107C643.68 178.652 664.228 168.233 666.957 158.759C667.571 156.626 667.159 154.741 665.668 152.817C663.661 150.235 661.582 148.971 659.327 148.971Z" fill="#FFD310"/>
<path d="M197.27 243.75H310.515C317.784 243.75 324.662 247.045 329.218 252.71L362.458 294.048C367.173 299.91 374.363 303.223 381.883 302.997L594.85 296.596" stroke="#FFB2B1" stroke-width="5" stroke-linejoin="round"/>
<path d="M209.361 244.265C209.361 249.301 205.279 253.384 200.243 253.384C195.207 253.384 191.124 249.301 191.124 244.265C191.124 239.229 195.207 235.147 200.243 235.147C205.279 235.147 209.361 239.229 209.361 244.265Z" fill="#FF383D"/>
<path d="M11.0007 244.366C11.0007 205.356 42.625 173.732 81.6348 173.732C120.645 173.732 152.266 205.356 152.266 244.366C152.266 283.376 120.645 315 81.6348 315C42.625 315 11.0007 283.376 11.0007 244.366Z" fill="#FFE1E2"/>
<path d="M81.3303 156.49C130.103 156.49 169.64 196.028 169.64 244.8C169.64 293.573 130.103 333.113 81.3303 333.113V376.724" stroke="#FFD6D7" stroke-width="2.4" stroke-miterlimit="10"/>
<path d="M74.0679 378.928C74.0679 374.916 77.3185 371.665 81.3301 371.665C85.3418 371.665 88.5924 374.916 88.5924 378.928C88.5924 382.939 85.3418 386.19 81.3301 386.19C77.3185 386.19 74.0679 382.939 74.0679 378.928Z" fill="#F2AEB0"/>
<path d="M47.8047 243V227.252H58.4287V229.11H49.8887V233.987H57.2793V235.846H49.8887V243H47.8047ZM61.1895 243V227.252H72.5762V229.11H63.2734V233.934H71.9854V235.781H63.2734V241.142H72.9414V243H61.1895ZM80.3213 243L74.2197 227.252H76.4756L80.5684 238.692C80.8978 239.609 81.1735 240.468 81.3955 241.271C81.639 240.411 81.9219 239.552 82.2441 238.692L86.498 227.252H88.625L82.459 243H80.3213ZM90.5371 243V227.252H101.924V229.11H92.6211V233.934H101.333V235.781H92.6211V241.142H102.289V243H90.5371ZM105.2 243V227.252H112.183C113.586 227.252 114.653 227.395 115.384 227.682C116.114 227.961 116.698 228.459 117.135 229.175C117.572 229.891 117.79 230.682 117.79 231.549C117.79 232.666 117.428 233.608 116.705 234.374C115.982 235.14 114.865 235.627 113.354 235.835C113.905 236.1 114.324 236.361 114.61 236.619C115.219 237.178 115.796 237.876 116.34 238.714L119.079 243H116.458L114.374 239.724C113.765 238.778 113.264 238.055 112.87 237.554C112.476 237.052 112.122 236.701 111.807 236.501C111.499 236.3 111.184 236.161 110.861 236.082C110.625 236.032 110.238 236.007 109.701 236.007H107.284V243H105.2ZM107.284 234.202H111.764C112.716 234.202 113.461 234.105 113.998 233.912C114.535 233.712 114.943 233.396 115.223 232.967C115.502 232.53 115.642 232.057 115.642 231.549C115.642 230.804 115.369 230.192 114.825 229.712C114.288 229.232 113.436 228.992 112.269 228.992H107.284V234.202Z" fill="#FF383D"/>
<path d="M650.77 358.046H819.584C828.398 358.046 836.503 362.877 840.695 370.63L871.944 428.419C876.136 436.172 884.241 441.004 893.055 441.004H975.84" stroke="#FFB2B1" stroke-width="5" stroke-linejoin="round"/>
<path d="M979.944 440.905C979.944 445.941 975.862 450.023 970.826 450.023C965.79 450.023 961.708 445.941 961.708 440.905C961.708 435.868 965.79 431.786 970.826 431.786C975.862 431.786 979.944 435.868 979.944 440.905Z" fill="#FF383D"/>
<path opacity="0.15" d="M1005.73 459.366C1005.73 420.356 1037.36 388.732 1076.37 388.732C1115.38 388.732 1147 420.356 1147 459.366C1147 498.376 1115.38 530 1076.37 530C1037.36 530 1005.73 498.376 1005.73 459.366Z" fill="#FF383D"/>
<path d="M1037.6 457V441.252H1044.58C1045.98 441.252 1047.05 441.395 1047.78 441.682C1048.51 441.961 1049.09 442.459 1049.53 443.175C1049.97 443.891 1050.19 444.682 1050.19 445.549C1050.19 446.666 1049.82 447.608 1049.1 448.374C1048.38 449.14 1047.26 449.627 1045.75 449.835C1046.3 450.1 1046.72 450.361 1047.01 450.619C1047.61 451.178 1048.19 451.876 1048.74 452.714L1051.47 457H1048.85L1046.77 453.724C1046.16 452.778 1045.66 452.055 1045.27 451.554C1044.87 451.052 1044.52 450.701 1044.2 450.501C1043.89 450.3 1043.58 450.161 1043.26 450.082C1043.02 450.032 1042.63 450.007 1042.1 450.007H1039.68V457H1037.6ZM1039.68 448.202H1044.16C1045.11 448.202 1045.86 448.105 1046.39 447.912C1046.93 447.712 1047.34 447.396 1047.62 446.967C1047.9 446.53 1048.04 446.057 1048.04 445.549C1048.04 444.804 1047.76 444.192 1047.22 443.712C1046.68 443.232 1045.83 442.992 1044.66 442.992H1039.68V448.202ZM1063.8 441.252H1065.88V450.351C1065.88 451.933 1065.7 453.19 1065.34 454.121C1064.98 455.052 1064.34 455.811 1063.4 456.398C1062.47 456.979 1061.24 457.269 1059.72 457.269C1058.25 457.269 1057.04 457.014 1056.1 456.506C1055.17 455.997 1054.5 455.263 1054.1 454.304C1053.69 453.337 1053.49 452.019 1053.49 450.351V441.252H1055.58V450.34C1055.58 451.708 1055.7 452.717 1055.95 453.369C1056.21 454.014 1056.65 454.511 1057.26 454.862C1057.89 455.213 1058.65 455.389 1059.54 455.389C1061.07 455.389 1062.17 455.041 1062.82 454.347C1063.47 453.652 1063.8 452.316 1063.8 450.34V441.252ZM1069.34 457V441.252H1071.48L1079.75 453.616V441.252H1081.75V457H1079.61L1071.34 444.625V457H1069.34ZM1085.24 457V441.252H1087.38L1095.65 453.616V441.252H1097.64V457H1095.51L1087.24 444.625V457H1085.24ZM1105.59 457V450.329L1099.52 441.252H1102.06L1105.16 446C1105.74 446.888 1106.27 447.776 1106.76 448.664C1107.24 447.84 1107.81 446.913 1108.48 445.882L1111.53 441.252H1113.96L1107.68 450.329V457H1105.59ZM1045.49 486V470.252H1047.63L1055.9 482.616V470.252H1057.9V486H1055.76L1047.49 473.625V486H1045.49ZM1060.78 478.33C1060.78 475.716 1061.48 473.672 1062.88 472.196C1064.29 470.714 1066.1 469.973 1068.32 469.973C1069.77 469.973 1071.08 470.32 1072.25 471.015C1073.42 471.709 1074.31 472.68 1074.91 473.926C1075.53 475.165 1075.84 476.572 1075.84 478.147C1075.84 479.744 1075.52 481.173 1074.87 482.434C1074.23 483.694 1073.31 484.65 1072.13 485.302C1070.95 485.946 1069.68 486.269 1068.31 486.269C1066.83 486.269 1065.5 485.91 1064.33 485.194C1063.17 484.478 1062.28 483.501 1061.68 482.262C1061.08 481.023 1060.78 479.712 1060.78 478.33ZM1062.93 478.362C1062.93 480.26 1063.43 481.757 1064.45 482.853C1065.48 483.941 1066.76 484.485 1068.3 484.485C1069.87 484.485 1071.15 483.934 1072.16 482.831C1073.18 481.728 1073.69 480.163 1073.69 478.137C1073.69 476.855 1073.47 475.738 1073.03 474.785C1072.6 473.826 1071.97 473.084 1071.13 472.562C1070.3 472.032 1069.37 471.767 1068.33 471.767C1066.85 471.767 1065.58 472.275 1064.52 473.292C1063.46 474.302 1062.93 475.992 1062.93 478.362ZM1077.83 480.94L1079.79 480.769C1079.88 481.556 1080.1 482.204 1080.44 482.713C1080.78 483.214 1081.31 483.622 1082.03 483.938C1082.74 484.245 1083.55 484.399 1084.44 484.399C1085.24 484.399 1085.94 484.281 1086.55 484.045C1087.16 483.809 1087.61 483.486 1087.9 483.078C1088.2 482.663 1088.35 482.212 1088.35 481.725C1088.35 481.23 1088.21 480.801 1087.92 480.436C1087.64 480.063 1087.16 479.752 1086.5 479.501C1086.08 479.336 1085.15 479.082 1083.7 478.738C1082.25 478.387 1081.24 478.058 1080.66 477.75C1079.91 477.356 1079.35 476.869 1078.97 476.289C1078.61 475.702 1078.43 475.047 1078.43 474.323C1078.43 473.528 1078.65 472.787 1079.1 472.1C1079.55 471.405 1080.21 470.879 1081.08 470.521C1081.95 470.162 1082.91 469.983 1083.97 469.983C1085.14 469.983 1086.16 470.173 1087.05 470.553C1087.95 470.925 1088.64 471.477 1089.12 472.207C1089.6 472.938 1089.85 473.765 1089.89 474.688L1087.89 474.839C1087.78 473.843 1087.42 473.091 1086.79 472.583C1086.18 472.075 1085.27 471.82 1084.06 471.82C1082.8 471.82 1081.88 472.053 1081.29 472.519C1080.72 472.977 1080.44 473.532 1080.44 474.184C1080.44 474.749 1080.64 475.215 1081.05 475.58C1081.45 475.945 1082.49 476.321 1084.18 476.708C1085.88 477.088 1087.05 477.421 1087.68 477.707C1088.59 478.13 1089.27 478.667 1089.71 479.318C1090.14 479.963 1090.36 480.708 1090.36 481.553C1090.36 482.391 1090.12 483.182 1089.64 483.927C1089.16 484.664 1088.47 485.241 1087.57 485.656C1086.67 486.064 1085.66 486.269 1084.54 486.269C1083.11 486.269 1081.92 486.061 1080.95 485.646C1079.99 485.23 1079.24 484.607 1078.68 483.776C1078.14 482.938 1077.85 481.993 1077.83 480.94ZM1093.25 486V470.252H1104.64V472.11H1095.33V476.934H1104.05V478.781H1095.33V484.142H1105V486H1093.25Z" fill="#FF383D"/>
<path d="M1081.03 371.265C1129.8 371.265 1169.34 410.803 1169.34 459.578C1169.34 508.35 1129.8 547.888 1081.03 547.888V591.502" stroke="#FFD6D7" stroke-width="2.4" stroke-miterlimit="10"/>
<path d="M1073.77 593.704C1073.77 589.692 1077.02 586.442 1081.03 586.442C1085.04 586.442 1088.29 589.692 1088.29 593.704C1088.29 597.716 1085.04 600.966 1081.03 600.966C1077.02 600.966 1073.77 597.716 1073.77 593.704Z" fill="#F2AEB0"/>
<path opacity="0.15" d="M11.0007 730.366C11.0007 691.356 42.625 659.732 81.6348 659.732C120.645 659.732 152.266 691.356 152.266 730.366C152.266 769.376 120.645 801 81.6348 801C42.625 801 11.0007 769.376 11.0007 730.366Z" fill="#FF383D"/>
<g filter="url(#filter0_d)">
<path d="M24.6973 732V716.252H30.1221C31.3467 716.252 32.2812 716.327 32.9258 716.478C33.8281 716.685 34.598 717.061 35.2354 717.605C36.0661 718.307 36.6855 719.206 37.0938 720.302C37.5091 721.39 37.7168 722.636 37.7168 724.04C37.7168 725.236 37.5771 726.296 37.2979 727.22C37.0186 728.144 36.6605 728.91 36.2236 729.519C35.7868 730.12 35.307 730.596 34.7842 730.947C34.2686 731.291 33.6419 731.552 32.9043 731.731C32.1738 731.91 31.3324 732 30.3799 732H24.6973ZM26.7812 730.142H30.1436C31.182 730.142 31.9948 730.045 32.582 729.852C33.1764 729.658 33.6491 729.386 34 729.035C34.4941 728.541 34.8773 727.879 35.1494 727.048C35.4287 726.21 35.5684 725.197 35.5684 724.008C35.5684 722.361 35.2962 721.097 34.752 720.216C34.2148 719.328 33.5596 718.733 32.7861 718.433C32.2275 718.218 31.3288 718.11 30.0898 718.11H26.7812V730.142ZM45.0322 732V725.329L38.9629 716.252H41.498L44.6025 721C45.1755 721.888 45.709 722.776 46.2031 723.664C46.6758 722.84 47.2487 721.913 47.9219 720.882L50.9727 716.252H53.4004L47.1162 725.329V732H45.0322ZM55.2695 732V716.252H61.21C62.2555 716.252 63.054 716.302 63.6055 716.402C64.3789 716.531 65.027 716.778 65.5498 717.144C66.0726 717.502 66.4915 718.007 66.8066 718.658C67.1289 719.31 67.29 720.026 67.29 720.807C67.29 722.146 66.8639 723.281 66.0117 724.212C65.1595 725.136 63.6198 725.598 61.3926 725.598H57.3535V732H55.2695ZM57.3535 723.739H61.4248C62.7712 723.739 63.7272 723.489 64.293 722.987C64.8587 722.486 65.1416 721.781 65.1416 720.871C65.1416 720.212 64.9733 719.65 64.6367 719.185C64.3073 718.712 63.8704 718.4 63.3262 718.25C62.9753 718.157 62.3271 718.11 61.3818 718.11H57.3535V723.739ZM69.2344 726.94L71.2002 726.769C71.2933 727.556 71.5081 728.204 71.8447 728.713C72.1885 729.214 72.7184 729.622 73.4346 729.938C74.1507 730.245 74.9564 730.399 75.8516 730.399C76.6465 730.399 77.3483 730.281 77.957 730.045C78.5658 729.809 79.0169 729.486 79.3105 729.078C79.6113 728.663 79.7617 728.212 79.7617 727.725C79.7617 727.23 79.6185 726.801 79.332 726.436C79.0456 726.063 78.5729 725.752 77.9141 725.501C77.4915 725.336 76.557 725.082 75.1104 724.738C73.6637 724.387 72.6504 724.058 72.0703 723.75C71.3184 723.356 70.7562 722.869 70.3838 722.289C70.0186 721.702 69.8359 721.047 69.8359 720.323C69.8359 719.528 70.0615 718.787 70.5127 718.1C70.9639 717.405 71.6227 716.879 72.4893 716.521C73.3558 716.162 74.319 715.983 75.3789 715.983C76.5462 715.983 77.5739 716.173 78.4619 716.553C79.3571 716.925 80.0446 717.477 80.5244 718.207C81.0042 718.938 81.262 719.765 81.2979 720.688L79.2998 720.839C79.1924 719.843 78.8271 719.091 78.2041 718.583C77.5882 718.075 76.6751 717.82 75.4648 717.82C74.2044 717.82 73.2842 718.053 72.7041 718.519C72.1312 718.977 71.8447 719.532 71.8447 720.184C71.8447 720.749 72.0488 721.215 72.457 721.58C72.8581 721.945 73.9036 722.321 75.5938 722.708C77.291 723.088 78.4548 723.421 79.085 723.707C80.0016 724.13 80.6784 724.667 81.1152 725.318C81.5521 725.963 81.7705 726.708 81.7705 727.553C81.7705 728.391 81.5306 729.182 81.0508 729.927C80.571 730.664 79.8799 731.241 78.9775 731.656C78.0824 732.064 77.0726 732.269 75.9482 732.269C74.5231 732.269 73.3271 732.061 72.3604 731.646C71.4007 731.23 70.6452 730.607 70.0938 729.776C69.5495 728.938 69.263 727.993 69.2344 726.94ZM84.5957 732V716.252H86.7334L95.0049 728.616V716.252H97.0029V732H94.8652L86.5938 719.625V732H84.5957ZM99.8818 724.33C99.8818 721.716 100.584 719.672 101.987 718.196C103.391 716.714 105.203 715.973 107.423 715.973C108.877 715.973 110.187 716.32 111.354 717.015C112.522 717.709 113.41 718.68 114.019 719.926C114.634 721.165 114.942 722.572 114.942 724.147C114.942 725.744 114.62 727.173 113.976 728.434C113.331 729.694 112.418 730.65 111.236 731.302C110.055 731.946 108.78 732.269 107.412 732.269C105.93 732.269 104.605 731.91 103.438 731.194C102.27 730.478 101.386 729.501 100.784 728.262C100.183 727.023 99.8818 725.712 99.8818 724.33ZM102.03 724.362C102.03 726.26 102.539 727.757 103.556 728.853C104.58 729.941 105.862 730.485 107.401 730.485C108.97 730.485 110.259 729.934 111.269 728.831C112.285 727.728 112.794 726.163 112.794 724.137C112.794 722.855 112.576 721.738 112.139 720.785C111.709 719.826 111.075 719.084 110.237 718.562C109.407 718.032 108.472 717.767 107.434 717.767C105.958 717.767 104.687 718.275 103.62 719.292C102.56 720.302 102.03 721.992 102.03 724.362ZM117.682 732V716.252H129.068V718.11H119.766V722.934H128.478V724.781H119.766V730.142H129.434V732H117.682ZM130.583 732L136.631 716.252H138.876L145.321 732H142.947L141.11 727.23H134.525L132.796 732H130.583ZM135.127 725.533H140.466L138.822 721.172C138.321 719.847 137.949 718.758 137.705 717.906C137.505 718.916 137.222 719.919 136.856 720.914L135.127 725.533Z" fill="#FF383D"/>
</g>
<path d="M81.3325 642.642C130.105 642.642 169.643 682.18 169.643 730.952C169.643 779.727 130.105 819.265 81.3325 819.265V862.876" stroke="#FFD6D7" stroke-width="2.4" stroke-miterlimit="10"/>
<path d="M74.0701 865.08C74.0701 861.068 77.3207 857.818 81.3323 857.818C85.344 857.818 88.5946 861.068 88.5946 865.08C88.5946 869.089 85.344 872.342 81.3323 872.342C77.3207 872.342 74.0701 869.089 74.0701 865.08Z" fill="#F2AEB0"/>
<path d="M186.74 742.834H365.033C374.666 742.834 383.365 737.075 387.127 728.207L443.54 595.233C447.302 586.365 456.002 580.606 465.634 580.606H672.809" stroke="#FFB2B1" stroke-width="5" stroke-linejoin="round"/>
<path d="M201.987 743.241C201.987 748.277 197.904 752.359 192.868 752.359C187.832 752.359 183.75 748.277 183.75 743.241C183.75 738.205 187.832 734.122 192.868 734.122C197.904 734.122 201.987 738.205 201.987 743.241Z" fill="#FF383D"/>
<path opacity="0.15" d="M159.268 488.366C159.268 449.356 127.644 417.732 88.6338 417.732C49.624 417.732 17.9998 449.356 17.9998 488.366C17.9998 527.376 49.624 559 88.6338 559C127.644 559 159.268 527.376 159.268 488.366Z" fill="#FF383D"/>
<path d="M41.917 485V471.11H36.7285V469.252H49.2109V471.11H44.001V485H41.917ZM51.4238 485V469.252H53.5078V475.719H61.6934V469.252H63.7773V485H61.6934V477.577H53.5078V485H51.4238ZM67.29 485V469.252H74.2725C75.6761 469.252 76.7432 469.395 77.4736 469.682C78.2041 469.961 78.7878 470.459 79.2246 471.175C79.6615 471.891 79.8799 472.682 79.8799 473.549C79.8799 474.666 79.5182 475.608 78.7949 476.374C78.0716 477.14 76.9544 477.627 75.4434 477.835C75.9948 478.1 76.4137 478.361 76.7002 478.619C77.3089 479.178 77.8854 479.876 78.4297 480.714L81.1689 485H78.5479L76.4639 481.724C75.8551 480.778 75.3538 480.055 74.96 479.554C74.5661 479.052 74.2116 478.701 73.8965 478.501C73.5885 478.3 73.2734 478.161 72.9512 478.082C72.7148 478.032 72.3281 478.007 71.791 478.007H69.374V485H67.29ZM69.374 476.202H73.8535C74.806 476.202 75.5508 476.105 76.0879 475.912C76.625 475.712 77.0332 475.396 77.3125 474.967C77.5918 474.53 77.7314 474.057 77.7314 473.549C77.7314 472.804 77.4593 472.192 76.915 471.712C76.3779 471.232 75.5257 470.992 74.3584 470.992H69.374V476.202ZM82.5225 477.33C82.5225 474.716 83.2243 472.672 84.6279 471.196C86.0316 469.714 87.8434 468.973 90.0635 468.973C91.5173 468.973 92.8278 469.32 93.9951 470.015C95.1624 470.709 96.0505 471.68 96.6592 472.926C97.2751 474.165 97.583 475.572 97.583 477.147C97.583 478.744 97.2607 480.173 96.6162 481.434C95.9717 482.694 95.0586 483.65 93.877 484.302C92.6953 484.946 91.4206 485.269 90.0527 485.269C88.5703 485.269 87.2454 484.91 86.0781 484.194C84.9108 483.478 84.0264 482.501 83.4248 481.262C82.8232 480.023 82.5225 478.712 82.5225 477.33ZM84.6709 477.362C84.6709 479.26 85.1794 480.757 86.1963 481.853C87.2204 482.941 88.5023 483.485 90.042 483.485C91.6104 483.485 92.8994 482.934 93.9092 481.831C94.9261 480.728 95.4346 479.163 95.4346 477.137C95.4346 475.855 95.2161 474.738 94.7793 473.785C94.3496 472.826 93.7158 472.084 92.8779 471.562C92.0472 471.032 91.1126 470.767 90.0742 470.767C88.599 470.767 87.3278 471.275 86.2607 472.292C85.2008 473.302 84.6709 474.992 84.6709 477.362ZM98.5498 485L104.598 469.252H106.843L113.288 485H110.914L109.077 480.23H102.492L100.763 485H98.5498ZM103.094 478.533H108.433L106.789 474.172C106.288 472.847 105.915 471.758 105.672 470.906C105.471 471.916 105.188 472.919 104.823 473.914L103.094 478.533ZM117.327 485V471.11H112.139V469.252H124.621V471.11H119.411V485H117.327ZM60.3291 514V498.252H66.2695C67.3151 498.252 68.1136 498.302 68.665 498.402C69.4385 498.531 70.0866 498.778 70.6094 499.144C71.1322 499.502 71.5511 500.007 71.8662 500.658C72.1885 501.31 72.3496 502.026 72.3496 502.807C72.3496 504.146 71.9235 505.281 71.0713 506.212C70.2191 507.136 68.6794 507.598 66.4521 507.598H62.4131V514H60.3291ZM62.4131 505.739H66.4844C67.8307 505.739 68.7868 505.489 69.3525 504.987C69.9183 504.486 70.2012 503.781 70.2012 502.871C70.2012 502.212 70.0329 501.65 69.6963 501.185C69.3669 500.712 68.93 500.4 68.3857 500.25C68.0348 500.157 67.3867 500.11 66.4414 500.11H62.4131V505.739ZM71.6406 514L77.6885 498.252H79.9336L86.3789 514H84.0049L82.168 509.23H75.583L73.8535 514H71.6406ZM76.1846 507.533H81.5234L79.8799 503.172C79.3786 501.847 79.0062 500.758 78.7627 499.906C78.5622 500.916 78.2793 501.919 77.9141 502.914L76.1846 507.533ZM88.3984 514V498.252H90.4824V514H88.3984ZM94.1455 514V498.252H96.2832L104.555 510.616V498.252H106.553V514H104.415L96.1436 501.625V514H94.1455Z" fill="#FF383D"/>
<path d="M89.9726 400.026C41.2003 400.026 1.6626 439.563 1.6626 488.338C1.6626 537.111 41.2003 576.648 89.9726 576.648V620.262" stroke="#FFD6D7" stroke-width="2.4" stroke-miterlimit="10"/>
<path d="M97.4327 622.545C97.4327 618.533 94.1821 615.283 90.1705 615.283C86.1615 615.283 82.9082 618.533 82.9082 622.545C82.9082 626.556 86.1615 629.807 90.1705 629.807C94.1821 629.807 97.4327 626.556 97.4327 622.545Z" fill="#F2AEB0"/>
<path d="M190.511 503.07H393.822C401.243 503.07 408.246 499.638 412.792 493.772L455.528 438.629C460.074 432.763 467.077 429.331 474.498 429.331H631.721" stroke="#FFB2B1" stroke-width="5" stroke-linejoin="round"/>
<path d="M200.761 503.586C200.761 508.622 196.678 512.704 191.642 512.704C186.606 512.704 182.524 508.622 182.524 503.586C182.524 498.55 186.606 494.468 191.642 494.468C196.678 494.468 200.761 498.55 200.761 503.586Z" fill="#FF383D"/>
<path opacity="0.13" d="M1160 700.366C1160 661.356 1128.38 629.732 1089.37 629.732C1050.36 629.732 1018.74 661.356 1018.74 700.366C1018.74 739.376 1050.36 771 1089.37 771C1128.38 771 1160 739.376 1160 700.366Z" fill="#FF383D"/>
<path d="M1038.96 686.94L1040.92 686.769C1041.01 687.556 1041.23 688.204 1041.57 688.713C1041.91 689.214 1042.44 689.622 1043.16 689.938C1043.87 690.245 1044.68 690.399 1045.57 690.399C1046.37 690.399 1047.07 690.281 1047.68 690.045C1048.29 689.809 1048.74 689.486 1049.03 689.078C1049.33 688.663 1049.48 688.212 1049.48 687.725C1049.48 687.23 1049.34 686.801 1049.05 686.436C1048.77 686.063 1048.29 685.752 1047.64 685.501C1047.21 685.336 1046.28 685.082 1044.83 684.738C1043.39 684.387 1042.37 684.058 1041.79 683.75C1041.04 683.356 1040.48 682.869 1040.11 682.289C1039.74 681.702 1039.56 681.047 1039.56 680.323C1039.56 679.528 1039.78 678.787 1040.23 678.1C1040.69 677.405 1041.34 676.879 1042.21 676.521C1043.08 676.162 1044.04 675.983 1045.1 675.983C1046.27 675.983 1047.3 676.173 1048.18 676.553C1049.08 676.925 1049.77 677.477 1050.25 678.207C1050.73 678.938 1050.98 679.765 1051.02 680.688L1049.02 680.839C1048.91 679.843 1048.55 679.091 1047.93 678.583C1047.31 678.075 1046.4 677.82 1045.19 677.82C1043.93 677.82 1043.01 678.053 1042.43 678.519C1041.85 678.977 1041.57 679.532 1041.57 680.184C1041.57 680.749 1041.77 681.215 1042.18 681.58C1042.58 681.945 1043.63 682.321 1045.32 682.708C1047.01 683.088 1048.18 683.421 1048.81 683.707C1049.72 684.13 1050.4 684.667 1050.84 685.318C1051.27 685.963 1051.49 686.708 1051.49 687.553C1051.49 688.391 1051.25 689.182 1050.77 689.927C1050.29 690.664 1049.6 691.241 1048.7 691.656C1047.8 692.064 1046.79 692.269 1045.67 692.269C1044.24 692.269 1043.05 692.061 1042.08 691.646C1041.12 691.23 1040.37 690.607 1039.82 689.776C1039.27 688.938 1038.98 687.993 1038.96 686.94ZM1054.4 692V676.252H1056.49V682.719H1064.67V676.252H1066.76V692H1064.67V684.577H1056.49V692H1054.4ZM1068.51 692L1074.56 676.252H1076.8L1083.25 692H1080.87L1079.04 687.23H1072.45L1070.72 692H1068.51ZM1073.05 685.533H1078.39L1076.75 681.172C1076.25 679.847 1075.87 678.758 1075.63 677.906C1075.43 678.916 1075.15 679.919 1074.78 680.914L1073.05 685.533ZM1084.83 692V676.252H1086.91V684.062L1094.73 676.252H1097.55L1090.95 682.633L1097.84 692H1095.09L1089.49 684.029L1086.91 686.543V692H1084.83ZM1099.94 692V676.252H1102.02V692H1099.94ZM1105.69 692V676.252H1107.82L1116.1 688.616V676.252H1118.09V692H1115.96L1107.68 679.625V692H1105.69ZM1128.98 685.823V683.976L1135.65 683.965V689.809C1134.62 690.625 1133.57 691.241 1132.48 691.656C1131.39 692.064 1130.27 692.269 1129.13 692.269C1127.58 692.269 1126.17 691.939 1124.9 691.28C1123.64 690.614 1122.69 689.655 1122.05 688.401C1121.4 687.148 1121.08 685.748 1121.08 684.201C1121.08 682.669 1121.4 681.24 1122.04 679.915C1122.68 678.583 1123.6 677.595 1124.81 676.95C1126.01 676.306 1127.4 675.983 1128.96 675.983C1130.1 675.983 1131.13 676.17 1132.05 676.542C1132.97 676.907 1133.69 677.419 1134.22 678.078C1134.74 678.737 1135.14 679.596 1135.41 680.656L1133.53 681.172C1133.29 680.37 1133 679.74 1132.65 679.281C1132.3 678.823 1131.8 678.458 1131.15 678.186C1130.49 677.906 1129.77 677.767 1128.98 677.767C1128.02 677.767 1127.2 677.913 1126.5 678.207C1125.81 678.493 1125.25 678.873 1124.82 679.346C1124.4 679.818 1124.07 680.338 1123.83 680.903C1123.43 681.877 1123.23 682.934 1123.23 684.072C1123.23 685.476 1123.47 686.65 1123.95 687.596C1124.44 688.541 1125.14 689.243 1126.06 689.701C1126.99 690.16 1127.97 690.389 1129.01 690.389C1129.91 690.389 1130.79 690.217 1131.65 689.873C1132.51 689.522 1133.16 689.15 1133.61 688.756V685.823H1128.98ZM1061.89 715.479L1063.97 716.005C1063.54 717.716 1062.75 719.023 1061.61 719.926C1060.48 720.821 1059.09 721.269 1057.45 721.269C1055.76 721.269 1054.37 720.925 1053.31 720.237C1052.25 719.543 1051.44 718.54 1050.88 717.229C1050.33 715.919 1050.05 714.512 1050.05 713.008C1050.05 711.368 1050.36 709.939 1050.99 708.722C1051.62 707.497 1052.51 706.57 1053.66 705.939C1054.82 705.302 1056.1 704.983 1057.49 704.983C1059.06 704.983 1060.39 705.384 1061.46 706.187C1062.54 706.989 1063.28 708.117 1063.71 709.57L1061.65 710.054C1061.29 708.908 1060.76 708.074 1060.06 707.551C1059.37 707.028 1058.5 706.767 1057.44 706.767C1056.23 706.767 1055.22 707.057 1054.4 707.637C1053.59 708.217 1053.02 708.997 1052.7 709.979C1052.37 710.952 1052.2 711.959 1052.2 712.997C1052.2 714.336 1052.39 715.507 1052.78 716.51C1053.18 717.505 1053.78 718.25 1054.61 718.744C1055.43 719.238 1056.32 719.485 1057.28 719.485C1058.45 719.485 1059.44 719.149 1060.25 718.476C1061.06 717.802 1061.6 716.803 1061.89 715.479ZM1066.62 721V705.252H1068.7V711.719H1076.89V705.252H1078.97V721H1076.89V713.577H1068.7V721H1066.62ZM1082.81 721V705.252H1084.89V721H1082.81ZM1088.49 721V705.252H1090.57V719.142H1098.33V721H1088.49ZM1100.73 721V705.252H1102.82V719.142H1110.57V721H1100.73ZM1112.36 715.94L1114.32 715.769C1114.42 716.556 1114.63 717.204 1114.97 717.713C1115.31 718.214 1115.84 718.622 1116.56 718.938C1117.27 719.245 1118.08 719.399 1118.97 719.399C1119.77 719.399 1120.47 719.281 1121.08 719.045C1121.69 718.809 1122.14 718.486 1122.43 718.078C1122.73 717.663 1122.88 717.212 1122.88 716.725C1122.88 716.23 1122.74 715.801 1122.46 715.436C1122.17 715.063 1121.7 714.752 1121.04 714.501C1120.61 714.336 1119.68 714.082 1118.23 713.738C1116.79 713.387 1115.77 713.058 1115.19 712.75C1114.44 712.356 1113.88 711.869 1113.51 711.289C1113.14 710.702 1112.96 710.047 1112.96 709.323C1112.96 708.528 1113.18 707.787 1113.64 707.1C1114.09 706.405 1114.75 705.879 1115.61 705.521C1116.48 705.162 1117.44 704.983 1118.5 704.983C1119.67 704.983 1120.7 705.173 1121.58 705.553C1122.48 705.925 1123.17 706.477 1123.65 707.207C1124.13 707.938 1124.39 708.765 1124.42 709.688L1122.42 709.839C1122.32 708.843 1121.95 708.091 1121.33 707.583C1120.71 707.075 1119.8 706.82 1118.59 706.82C1117.33 706.82 1116.41 707.053 1115.83 707.519C1115.25 707.977 1114.97 708.532 1114.97 709.184C1114.97 709.749 1115.17 710.215 1115.58 710.58C1115.98 710.945 1117.03 711.321 1118.72 711.708C1120.41 712.088 1121.58 712.421 1122.21 712.707C1123.12 713.13 1123.8 713.667 1124.24 714.318C1124.68 714.963 1124.89 715.708 1124.89 716.553C1124.89 717.391 1124.65 718.182 1124.17 718.927C1123.69 719.664 1123 720.241 1122.1 720.656C1121.21 721.064 1120.2 721.269 1119.07 721.269C1117.65 721.269 1116.45 721.061 1115.48 720.646C1114.52 720.23 1113.77 719.607 1113.22 718.776C1112.67 717.938 1112.39 716.993 1112.36 715.94Z" fill="#FA5652"/>
<path d="M1089.87 613.801C1041.1 613.801 1001.56 653.339 1001.56 702.111C1001.56 750.886 1041.1 790.424 1089.87 790.424V834.035" stroke="#FFD6D7" stroke-width="2.4" stroke-miterlimit="10"/>
<path d="M1097.13 836.239C1097.13 832.227 1093.88 828.976 1089.86 828.976C1085.85 828.976 1082.6 832.227 1082.6 836.239C1082.6 840.248 1085.85 843.501 1089.86 843.501C1093.88 843.501 1097.13 840.248 1097.13 836.239Z" fill="#F2AEB0"/>
<path d="M725.738 754.401H816.846C824.124 754.401 831.009 751.098 835.565 745.421L861.096 713.605C865.651 707.929 872.536 704.626 879.814 704.626H973.995" stroke="#FFA6A6" stroke-width="5" stroke-linejoin="round"/>
<path d="M979.943 703.913C979.943 708.949 975.861 713.031 970.825 713.031C965.789 713.031 961.706 708.949 961.706 703.913C961.706 698.876 965.789 694.794 970.825 694.794C975.861 694.794 979.943 698.876 979.943 703.913Z" fill="#FF383D"/>
<path opacity="0.15" d="M1160 214.366C1160 175.356 1128.38 143.732 1089.37 143.732C1050.36 143.732 1018.74 175.356 1018.74 214.366C1018.74 253.376 1050.36 285 1089.37 285C1128.38 285 1160 253.376 1160 214.366Z" fill="#FF383D"/>
<path d="M1026.76 226V210.252H1028.85V216.719H1037.03V210.252H1039.12V226H1037.03V218.577H1028.85V226H1026.76ZM1042.64 226V210.252H1054.03V212.11H1044.72V216.934H1053.43V218.781H1044.72V224.142H1054.39V226H1042.64ZM1055.54 226L1061.59 210.252H1063.83L1070.28 226H1067.9L1066.07 221.23H1059.48L1057.75 226H1055.54ZM1060.08 219.533H1065.42L1063.78 215.172C1063.28 213.847 1062.91 212.758 1062.66 211.906C1062.46 212.916 1062.18 213.919 1061.81 214.914L1060.08 219.533ZM1071.94 226V210.252H1077.37C1078.59 210.252 1079.53 210.327 1080.17 210.478C1081.07 210.685 1081.84 211.061 1082.48 211.605C1083.31 212.307 1083.93 213.206 1084.34 214.302C1084.76 215.39 1084.96 216.636 1084.96 218.04C1084.96 219.236 1084.82 220.296 1084.54 221.22C1084.26 222.144 1083.91 222.91 1083.47 223.519C1083.03 224.12 1082.55 224.596 1082.03 224.947C1081.51 225.291 1080.89 225.552 1080.15 225.731C1079.42 225.91 1078.58 226 1077.63 226H1071.94ZM1074.03 224.142H1077.39C1078.43 224.142 1079.24 224.045 1079.83 223.852C1080.42 223.658 1080.9 223.386 1081.25 223.035C1081.74 222.541 1082.12 221.879 1082.4 221.048C1082.67 220.21 1082.81 219.197 1082.81 218.008C1082.81 216.361 1082.54 215.097 1082 214.216C1081.46 213.328 1080.81 212.733 1080.03 212.433C1079.47 212.218 1078.57 212.11 1077.34 212.11H1074.03V224.142ZM1086.11 226L1092.16 210.252H1094.41L1100.85 226H1098.48L1096.64 221.23H1090.05L1088.33 226H1086.11ZM1090.66 219.533H1096L1094.35 215.172C1093.85 213.847 1093.48 212.758 1093.23 211.906C1093.03 212.916 1092.75 213.919 1092.39 214.914L1090.66 219.533ZM1113.75 220.479L1115.84 221.005C1115.4 222.716 1114.61 224.023 1113.47 224.926C1112.34 225.821 1110.96 226.269 1109.32 226.269C1107.62 226.269 1106.24 225.925 1105.17 225.237C1104.11 224.543 1103.3 223.54 1102.74 222.229C1102.19 220.919 1101.91 219.512 1101.91 218.008C1101.91 216.368 1102.23 214.939 1102.85 213.722C1103.48 212.497 1104.37 211.57 1105.52 210.939C1106.68 210.302 1107.96 209.983 1109.35 209.983C1110.92 209.983 1112.25 210.384 1113.32 211.187C1114.4 211.989 1115.14 213.117 1115.57 214.57L1113.52 215.054C1113.15 213.908 1112.62 213.074 1111.93 212.551C1111.23 212.028 1110.36 211.767 1109.3 211.767C1108.09 211.767 1107.08 212.057 1106.26 212.637C1105.46 213.217 1104.89 213.997 1104.56 214.979C1104.23 215.952 1104.06 216.959 1104.06 217.997C1104.06 219.336 1104.26 220.507 1104.64 221.51C1105.04 222.505 1105.65 223.25 1106.47 223.744C1107.29 224.238 1108.18 224.485 1109.14 224.485C1110.31 224.485 1111.3 224.149 1112.11 223.476C1112.92 222.802 1113.47 221.803 1113.75 220.479ZM1118.48 226V210.252H1120.56V216.719H1128.75V210.252H1130.83V226H1128.75V218.577H1120.56V226H1118.48ZM1134.36 226V210.252H1145.74V212.11H1136.44V216.934H1145.15V218.781H1136.44V224.142H1146.11V226H1134.36Z" fill="#FF383D"/>
<path d="M1089.87 127.65C1041.1 127.65 1001.56 167.187 1001.56 215.96C1001.56 264.732 1041.1 304.272 1089.87 304.272V347.883" stroke="#FFD6D7" stroke-width="2.4" stroke-miterlimit="10"/>
<path d="M1097.13 350.087C1097.13 346.075 1093.88 342.825 1089.87 342.825C1085.86 342.825 1082.61 346.075 1082.61 350.087C1082.61 354.099 1085.86 357.349 1089.87 357.349C1093.88 357.349 1097.13 354.099 1097.13 350.087Z" fill="#F2AEB0"/>
<path d="M975.839 222.859H849.559C843.442 222.859 837.555 225.195 833.102 229.39L804.567 256.271C800.114 260.466 794.228 262.802 788.11 262.802H674.12" stroke="#FFB2B1" stroke-width="5" stroke-linejoin="round"/>
<path d="M979.941 222.146C979.941 227.182 975.859 231.264 970.822 231.264C965.786 231.264 961.704 227.182 961.704 222.146C961.704 217.11 965.786 213.027 970.822 213.027C975.859 213.027 979.941 217.11 979.941 222.146Z" fill="#FF383D"/>
<defs>
<filter id="filter0_d" x="24.6973" y="715.973" width="120.624" height="16.2959" filterUnits="userSpaceOnUse" color-interpolation-filters="sRGB">
<feFlood flood-opacity="0" result="BackgroundImageFix"/>
<feColorMatrix in="SourceAlpha" type="matrix" values="0 0 0 0 0 0 0 0 0 0 0 0 0 0 0 0 0 0 127 0"/>
<feOffset/>
<feColorMatrix type="matrix" values="0 0 0 0 0 0 0 0 0 0 0 0 0 0 0 0 0 0 0.1 0"/>
<feBlend mode="normal" in2="BackgroundImageFix" result="effect1_dropShadow"/>
<feBlend mode="normal" in="SourceGraphic" in2="effect1_dropShadow" result="shape"/>
</filter>
<linearGradient id="paint0_linear" x1="279.615" y1="651.802" x2="343.866" y2="780.175" gradientUnits="userSpaceOnUse">
<stop stop-color="#FFC8C8"/>
<stop offset="1" stop-color="#FFF2F5"/>
</linearGradient>
<linearGradient id="paint1_linear" x1="911.18" y1="248.499" x2="389.511" y2="38.2372" gradientUnits="userSpaceOnUse">
<stop stop-color="white"/>
<stop offset="1" stop-color="#FFD5D5"/>
</linearGradient>
<linearGradient id="paint2_linear" x1="843.946" y1="153.536" x2="682.873" y2="126.967" gradientUnits="userSpaceOnUse">
<stop stop-color="#FFD3D3"/>
<stop offset="1" stop-color="#FFF6F6"/>
</linearGradient>
<linearGradient id="paint3_linear" x1="205.431" y1="428.025" x2="962.765" y2="428.025" gradientUnits="userSpaceOnUse">
<stop stop-color="#FFF8F5"/>
<stop offset="1" stop-color="#FFDEDE"/>
</linearGradient>
<linearGradient id="paint4_linear" x1="893.009" y1="609.534" x2="694.623" y2="627.818" gradientUnits="userSpaceOnUse">
<stop stop-color="#FFC2C2"/>
<stop offset="1" stop-color="white"/>
</linearGradient>
</defs>
</svg>
